<?xml version="1.0" standalone="no"?>
<!DOCTYPE svg PUBLIC "-//W3C//DTD SVG 20010904//EN"
 "http://www.w3.org/TR/2001/REC-SVG-20010904/DTD/svg10.dtd">
<svg version="1.0" xmlns="http://www.w3.org/2000/svg"
 width="48.000000pt" height="48.000000pt" viewBox="0 0 48.000000 48.000000"
 preserveAspectRatio="xMidYMid meet">

<g transform="translate(0.000000,48.000000) scale(0.100000,-0.100000)"
fill="#000000" stroke="none">
<path d="M380 270 c0 -5 5 -10 10 -10 6 0 10 5 10 10 0 6 -4 10 -10 10 -5 0
-10 -4 -10 -10z"/>
<path d="M426 255 c-6 -17 2 -45 14 -45 4 0 13 7 20 15 10 12 10 18 0 30 -7 8
-16 15 -20 15 -4 0 -10 -7 -14 -15z"/>
<path d="M93 103 c-29 -11 -10 -23 37 -23 40 0 48 3 44 15 -7 18 -40 20 -47 3
-4 -10 -6 -10 -6 0 -1 13 -7 14 -28 5z"/>
<path d="M293 103 c-26 -10 -11 -23 27 -23 31 0 38 3 34 15 -6 15 -36 19 -61
8z"/>
</g>
</svg>
